<mxfile host="app.diagrams.net" modified="2021-04-07T08:31:18.197Z" agent="5.0 (Macintosh; Intel Mac OS X 10_15_7) AppleWebKit/537.36 (KHTML, like Gecko) Chrome/89.0.4389.114 Safari/537.36" etag="o7AsKLWf607fnYs5NMju" version="14.5.7" type="github">
  <diagram name="Page-1" id="9361dd3d-8414-5efd-6122-117bd74ce7a7">
    <mxGraphModel dx="1154" dy="806" grid="1" gridSize="10" guides="1" tooltips="1" connect="1" arrows="1" fold="1" page="0" pageScale="1.5" pageWidth="826" pageHeight="1169" background="#ffffff" math="0" shadow="0">
      <root>
        <mxCell id="0" />
        <mxCell id="1" parent="0" />
        <mxCell id="2" value="" style="fillColor=#CC4125;strokeColor=#660000" parent="1" vertex="1">
          <mxGeometry x="200" y="150" width="10" height="130" as="geometry" />
        </mxCell>
        <mxCell id="3" value="创建导出申请" style="edgeStyle=none;verticalLabelPosition=top;verticalAlign=bottom;labelPosition=left;align=right" parent="1" edge="1">
          <mxGeometry x="110" y="49.5" width="100" height="100" as="geometry">
            <mxPoint x="110" y="149.5" as="sourcePoint" />
            <mxPoint x="200" y="149.5" as="targetPoint" />
          </mxGeometry>
        </mxCell>
        <mxCell id="15" value="CDP" style="shadow=1;fillColor=#A2C4C9;strokeColor=none" parent="1" vertex="1">
          <mxGeometry x="462.2839506172839" y="69.99999999999997" width="105" height="50" as="geometry" />
        </mxCell>
        <mxCell id="16" value="" style="edgeStyle=none;endArrow=none" parent="1" source="15" target="17" edge="1">
          <mxGeometry x="437.042824074074" y="270" width="100" height="100" as="geometry">
            <mxPoint x="514.542824074074" y="219.99999999999997" as="sourcePoint" />
            <mxPoint x="514.542824074074" y="239.99999999999997" as="targetPoint" />
          </mxGeometry>
        </mxCell>
        <mxCell id="MNbktaQOOhZmjbPWuaJj-98" value="返回sql加密字段信息" style="edgeStyle=orthogonalEdgeStyle;curved=1;orthogonalLoop=1;jettySize=auto;html=1;exitX=0;exitY=0.75;exitDx=0;exitDy=0;entryX=1;entryY=0.75;entryDx=0;entryDy=0;" edge="1" parent="1" source="17" target="2">
          <mxGeometry relative="1" as="geometry">
            <Array as="points">
              <mxPoint x="230" y="248" />
              <mxPoint x="230" y="248" />
            </Array>
          </mxGeometry>
        </mxCell>
        <mxCell id="17" value="" style="fillColor=#CC4125;strokeColor=#660000" parent="1" vertex="1">
          <mxGeometry x="509.7839506172839" y="150.00429012345683" width="10" height="130" as="geometry" />
        </mxCell>
        <mxCell id="33" value="" style="edgeStyle=elbowEdgeStyle;elbow=horizontal;endArrow=none;dashed=1" parent="1" target="2" edge="1">
          <mxGeometry x="230.00000000000003" y="310" width="100" height="100" as="geometry">
            <mxPoint x="205" y="110" as="sourcePoint" />
            <mxPoint x="330" y="310" as="targetPoint" />
          </mxGeometry>
        </mxCell>
        <mxCell id="MNbktaQOOhZmjbPWuaJj-110" value="创建导出申请" style="edgeStyle=none;orthogonalLoop=1;jettySize=auto;html=1;exitX=1;exitY=0.25;exitDx=0;exitDy=0;" edge="1" parent="1" source="42">
          <mxGeometry x="0.0025" y="-16" relative="1" as="geometry">
            <mxPoint x="509" y="413" as="targetPoint" />
            <mxPoint as="offset" />
          </mxGeometry>
        </mxCell>
        <mxCell id="MNbktaQOOhZmjbPWuaJj-118" style="edgeStyle=none;orthogonalLoop=1;jettySize=auto;html=1;exitX=1;exitY=0.75;exitDx=0;exitDy=0;entryX=0.05;entryY=0.669;entryDx=0;entryDy=0;entryPerimeter=0;" edge="1" parent="1" source="42" target="MNbktaQOOhZmjbPWuaJj-113">
          <mxGeometry relative="1" as="geometry">
            <mxPoint x="510" y="525" as="targetPoint" />
          </mxGeometry>
        </mxCell>
        <mxCell id="MNbktaQOOhZmjbPWuaJj-122" value="&lt;span style=&quot;font-size: 12px&quot;&gt;审批申请&lt;/span&gt;" style="edgeLabel;html=1;align=center;verticalAlign=middle;resizable=0;points=[];" vertex="1" connectable="0" parent="MNbktaQOOhZmjbPWuaJj-118">
          <mxGeometry x="-0.12" relative="1" as="geometry">
            <mxPoint as="offset" />
          </mxGeometry>
        </mxCell>
        <mxCell id="MNbktaQOOhZmjbPWuaJj-126" style="edgeStyle=none;orthogonalLoop=1;jettySize=auto;html=1;" edge="1" parent="1">
          <mxGeometry relative="1" as="geometry">
            <mxPoint x="205" y="650" as="targetPoint" />
            <mxPoint x="205" y="670" as="sourcePoint" />
          </mxGeometry>
        </mxCell>
        <mxCell id="42" value="" style="fillColor=#CC4125;strokeColor=#660000" parent="1" vertex="1">
          <mxGeometry x="200" y="360" width="10" height="220" as="geometry" />
        </mxCell>
        <mxCell id="44" value="" style="edgeStyle=none;dashed=1;endArrow=none" parent="1" source="2" target="42" edge="1">
          <mxGeometry x="50" y="300" width="100" height="100" as="geometry">
            <mxPoint x="50" y="400" as="sourcePoint" />
            <mxPoint x="150" y="300" as="targetPoint" />
          </mxGeometry>
        </mxCell>
        <mxCell id="48" value="" style="fillColor=#CC4125;strokeColor=#660000" parent="1" vertex="1">
          <mxGeometry x="509.78" y="360" width="10" height="90" as="geometry" />
        </mxCell>
        <mxCell id="MNbktaQOOhZmjbPWuaJj-91" value="" style="edgeStyle=orthogonalEdgeStyle;rounded=0;orthogonalLoop=1;jettySize=auto;html=1;" edge="1" parent="1" target="2">
          <mxGeometry relative="1" as="geometry">
            <mxPoint x="205" y="110" as="sourcePoint" />
          </mxGeometry>
        </mxCell>
        <mxCell id="MNbktaQOOhZmjbPWuaJj-96" value="" style="endArrow=open;endFill=1;endSize=12;html=1;entryX=0;entryY=0.25;entryDx=0;entryDy=0;" edge="1" parent="1" target="17">
          <mxGeometry width="160" relative="1" as="geometry">
            <mxPoint x="210" y="180" as="sourcePoint" />
            <mxPoint x="370" y="180" as="targetPoint" />
          </mxGeometry>
        </mxCell>
        <mxCell id="MNbktaQOOhZmjbPWuaJj-97" value="调用cdp解析sql" style="edgeLabel;html=1;align=center;verticalAlign=middle;resizable=0;points=[];" vertex="1" connectable="0" parent="MNbktaQOOhZmjbPWuaJj-96">
          <mxGeometry x="0.8412" y="2" relative="1" as="geometry">
            <mxPoint x="-106.01" as="offset" />
          </mxGeometry>
        </mxCell>
        <mxCell id="MNbktaQOOhZmjbPWuaJj-99" value="" style="endArrow=open;endFill=1;endSize=12;html=1;" edge="1" parent="1">
          <mxGeometry width="160" relative="1" as="geometry">
            <mxPoint x="110" y="400" as="sourcePoint" />
            <mxPoint x="200" y="400" as="targetPoint" />
          </mxGeometry>
        </mxCell>
        <mxCell id="MNbktaQOOhZmjbPWuaJj-101" value="选择导出字段加密方式" style="text;html=1;align=center;verticalAlign=middle;resizable=0;points=[];autosize=1;" vertex="1" parent="1">
          <mxGeometry x="40" y="380" width="140" height="20" as="geometry" />
        </mxCell>
        <mxCell id="MNbktaQOOhZmjbPWuaJj-103" value="" style="shape=umlLifeline;participant=umlActor;perimeter=lifelinePerimeter;whiteSpace=wrap;html=1;container=1;collapsible=0;recursiveResize=0;verticalAlign=top;spacingTop=36;outlineConnect=0;" vertex="1" parent="1">
          <mxGeometry x="195" y="70" width="20" height="300" as="geometry" />
        </mxCell>
        <mxCell id="MNbktaQOOhZmjbPWuaJj-109" value="" style="endArrow=none;dashed=1;html=1;dashPattern=1 3;strokeWidth=2;" edge="1" parent="1">
          <mxGeometry width="50" height="50" relative="1" as="geometry">
            <mxPoint x="512" y="350" as="sourcePoint" />
            <mxPoint x="512" y="280" as="targetPoint" />
          </mxGeometry>
        </mxCell>
        <mxCell id="MNbktaQOOhZmjbPWuaJj-112" style="edgeStyle=none;orthogonalLoop=1;jettySize=auto;html=1;exitX=0.5;exitY=1;exitDx=0;exitDy=0;" edge="1" parent="1" source="MNbktaQOOhZmjbPWuaJj-113">
          <mxGeometry relative="1" as="geometry">
            <mxPoint x="803" y="510" as="targetPoint" />
          </mxGeometry>
        </mxCell>
        <mxCell id="MNbktaQOOhZmjbPWuaJj-111" value="审批中心" style="shadow=1;fillColor=#A2C4C9;strokeColor=none" vertex="1" parent="1">
          <mxGeometry x="750.0039506172839" y="69.99999999999997" width="105" height="50" as="geometry" />
        </mxCell>
        <mxCell id="MNbktaQOOhZmjbPWuaJj-113" value="" style="fillColor=#CC4125;strokeColor=#660000" vertex="1" parent="1">
          <mxGeometry x="797.5039506172839" y="440.0042901234568" width="10" height="130" as="geometry" />
        </mxCell>
        <mxCell id="MNbktaQOOhZmjbPWuaJj-114" style="edgeStyle=none;orthogonalLoop=1;jettySize=auto;html=1;exitX=0.5;exitY=1;exitDx=0;exitDy=0;" edge="1" parent="1" source="MNbktaQOOhZmjbPWuaJj-111" target="MNbktaQOOhZmjbPWuaJj-113">
          <mxGeometry relative="1" as="geometry">
            <mxPoint x="803" y="510" as="targetPoint" />
            <mxPoint x="802.5039506172839" y="120" as="sourcePoint" />
          </mxGeometry>
        </mxCell>
        <mxCell id="MNbktaQOOhZmjbPWuaJj-115" value="创建审批流" style="endArrow=open;endFill=1;endSize=12;html=1;exitX=0.75;exitY=1;exitDx=0;exitDy=0;" edge="1" parent="1" source="48">
          <mxGeometry width="160" relative="1" as="geometry">
            <mxPoint x="637.5" y="450" as="sourcePoint" />
            <mxPoint x="797.5" y="450" as="targetPoint" />
          </mxGeometry>
        </mxCell>
        <mxCell id="MNbktaQOOhZmjbPWuaJj-116" value="" style="endArrow=open;endFill=1;endSize=12;html=1;" edge="1" parent="1">
          <mxGeometry width="160" relative="1" as="geometry">
            <mxPoint x="120" y="520" as="sourcePoint" />
            <mxPoint x="200" y="520" as="targetPoint" />
          </mxGeometry>
        </mxCell>
        <mxCell id="MNbktaQOOhZmjbPWuaJj-117" value="审批申请" style="text;html=1;align=center;verticalAlign=middle;resizable=0;points=[];autosize=1;" vertex="1" parent="1">
          <mxGeometry x="60" y="500" width="60" height="20" as="geometry" />
        </mxCell>
        <mxCell id="MNbktaQOOhZmjbPWuaJj-119" value="" style="fillColor=#CC4125;strokeColor=#660000" vertex="1" parent="1">
          <mxGeometry x="509.78" y="450" width="10" height="120" as="geometry" />
        </mxCell>
        <mxCell id="MNbktaQOOhZmjbPWuaJj-124" value="" style="endArrow=open;endFill=1;endSize=12;html=1;entryX=1;entryY=0.909;entryDx=0;entryDy=0;entryPerimeter=0;" edge="1" parent="1" target="42">
          <mxGeometry width="160" relative="1" as="geometry">
            <mxPoint x="796" y="560" as="sourcePoint" />
            <mxPoint x="620" y="410" as="targetPoint" />
          </mxGeometry>
        </mxCell>
        <mxCell id="MNbktaQOOhZmjbPWuaJj-125" value="审批完成" style="edgeLabel;html=1;align=center;verticalAlign=middle;resizable=0;points=[];" vertex="1" connectable="0" parent="MNbktaQOOhZmjbPWuaJj-124">
          <mxGeometry x="0.1775" relative="1" as="geometry">
            <mxPoint x="11.28" as="offset" />
          </mxGeometry>
        </mxCell>
        <mxCell id="MNbktaQOOhZmjbPWuaJj-128" value="" style="fillColor=#CC4125;strokeColor=#660000" vertex="1" parent="1">
          <mxGeometry x="200" y="570" width="10" height="190" as="geometry" />
        </mxCell>
        <mxCell id="MNbktaQOOhZmjbPWuaJj-138" style="edgeStyle=none;orthogonalLoop=1;jettySize=auto;html=1;exitX=1;exitY=0.5;exitDx=0;exitDy=0;entryX=-0.15;entryY=0.324;entryDx=0;entryDy=0;entryPerimeter=0;" edge="1" parent="1" source="MNbktaQOOhZmjbPWuaJj-129" target="MNbktaQOOhZmjbPWuaJj-135">
          <mxGeometry relative="1" as="geometry">
            <mxPoint x="1030" y="650" as="targetPoint" />
          </mxGeometry>
        </mxCell>
        <mxCell id="MNbktaQOOhZmjbPWuaJj-139" value="根据配置将查询数据中需要加密字段加密，生产csv文件上传OSS" style="edgeLabel;html=1;align=center;verticalAlign=middle;resizable=0;points=[];" vertex="1" connectable="0" parent="MNbktaQOOhZmjbPWuaJj-138">
          <mxGeometry x="-0.2458" y="-1" relative="1" as="geometry">
            <mxPoint as="offset" />
          </mxGeometry>
        </mxCell>
        <mxCell id="MNbktaQOOhZmjbPWuaJj-129" value="" style="fillColor=#CC4125;strokeColor=#660000" vertex="1" parent="1">
          <mxGeometry x="509.78" y="570" width="10" height="150" as="geometry" />
        </mxCell>
        <mxCell id="MNbktaQOOhZmjbPWuaJj-130" value="" style="endArrow=open;endFill=1;endSize=12;html=1;entryX=-0.278;entryY=0.46;entryDx=0;entryDy=0;entryPerimeter=0;" edge="1" parent="1" target="MNbktaQOOhZmjbPWuaJj-129">
          <mxGeometry width="160" relative="1" as="geometry">
            <mxPoint x="210" y="640" as="sourcePoint" />
            <mxPoint x="370" y="640" as="targetPoint" />
          </mxGeometry>
        </mxCell>
        <mxCell id="MNbktaQOOhZmjbPWuaJj-131" value="执行审批" style="edgeLabel;html=1;align=center;verticalAlign=middle;resizable=0;points=[];" vertex="1" connectable="0" parent="MNbktaQOOhZmjbPWuaJj-130">
          <mxGeometry x="-0.2592" y="1" relative="1" as="geometry">
            <mxPoint as="offset" />
          </mxGeometry>
        </mxCell>
        <mxCell id="MNbktaQOOhZmjbPWuaJj-132" value="" style="endArrow=open;endFill=1;endSize=12;html=1;" edge="1" parent="1">
          <mxGeometry width="160" relative="1" as="geometry">
            <mxPoint x="115" y="640" as="sourcePoint" />
            <mxPoint x="195" y="640" as="targetPoint" />
          </mxGeometry>
        </mxCell>
        <mxCell id="MNbktaQOOhZmjbPWuaJj-133" value="执行审批" style="text;html=1;align=center;verticalAlign=middle;resizable=0;points=[];autosize=1;" vertex="1" parent="1">
          <mxGeometry x="60" y="620" width="60" height="20" as="geometry" />
        </mxCell>
        <mxCell id="MNbktaQOOhZmjbPWuaJj-134" value="OSS" style="shadow=1;fillColor=#A2C4C9;strokeColor=none" vertex="1" parent="1">
          <mxGeometry x="990.0039506172839" y="69.99999999999997" width="105" height="50" as="geometry" />
        </mxCell>
        <mxCell id="MNbktaQOOhZmjbPWuaJj-135" value="" style="fillColor=#CC4125;strokeColor=#660000" vertex="1" parent="1">
          <mxGeometry x="1037.5" y="590" width="10" height="170" as="geometry" />
        </mxCell>
        <mxCell id="MNbktaQOOhZmjbPWuaJj-137" style="edgeStyle=none;orthogonalLoop=1;jettySize=auto;html=1;exitX=0.5;exitY=1;exitDx=0;exitDy=0;entryX=0.5;entryY=0;entryDx=0;entryDy=0;" edge="1" parent="1" target="MNbktaQOOhZmjbPWuaJj-135">
          <mxGeometry relative="1" as="geometry">
            <mxPoint x="1042.0039506172839" y="450.00429012345694" as="targetPoint" />
            <mxPoint x="1042.0039506172839" y="130" as="sourcePoint" />
          </mxGeometry>
        </mxCell>
        <mxCell id="MNbktaQOOhZmjbPWuaJj-140" value="" style="endArrow=open;endFill=1;endSize=12;html=1;entryX=0.25;entryY=1;entryDx=0;entryDy=0;" edge="1" parent="1" target="MNbktaQOOhZmjbPWuaJj-135">
          <mxGeometry width="160" relative="1" as="geometry">
            <mxPoint x="210" y="759" as="sourcePoint" />
            <mxPoint x="370" y="759" as="targetPoint" />
          </mxGeometry>
        </mxCell>
        <mxCell id="MNbktaQOOhZmjbPWuaJj-143" value="前端从oss中导出文件" style="edgeLabel;html=1;align=center;verticalAlign=middle;resizable=0;points=[];" vertex="1" connectable="0" parent="MNbktaQOOhZmjbPWuaJj-140">
          <mxGeometry x="-0.653" y="2" relative="1" as="geometry">
            <mxPoint as="offset" />
          </mxGeometry>
        </mxCell>
        <mxCell id="MNbktaQOOhZmjbPWuaJj-141" value="" style="endArrow=open;endFill=1;endSize=12;html=1;" edge="1" parent="1">
          <mxGeometry width="160" relative="1" as="geometry">
            <mxPoint x="115" y="759" as="sourcePoint" />
            <mxPoint x="195" y="759" as="targetPoint" />
          </mxGeometry>
        </mxCell>
        <mxCell id="MNbktaQOOhZmjbPWuaJj-142" value="下载文件" style="text;html=1;align=center;verticalAlign=middle;resizable=0;points=[];autosize=1;" vertex="1" parent="1">
          <mxGeometry x="60" y="740" width="60" height="20" as="geometry" />
        </mxCell>
      </root>
    </mxGraphModel>
  </diagram>
</mxfile>
